<svg width="96" height="97" viewBox="0 0 96 97" fill="none" xmlns="http://www.w3.org/2000/svg">
<g id="Icon  --icon">
<path id="Vector" d="M63 42.5001C63 43.2958 62.6839 44.0588 62.1213 44.6214C61.5587 45.184 60.7957 45.5001 60 45.5001H36C35.2044 45.5001 34.4413 45.184 33.8787 44.6214C33.3161 44.0588 33 43.2958 33 42.5001C33 41.7045 33.3161 40.9414 33.8787 40.3788C34.4413 39.8162 35.2044 39.5001 36 39.5001H60C60.7957 39.5001 61.5587 39.8162 62.1213 40.3788C62.6839 40.9414 63 41.7045 63 42.5001ZM60 51.5001H36C35.2044 51.5001 34.4413 51.8162 33.8787 52.3788C33.3161 52.9414 33 53.7045 33 54.5001C33 55.2958 33.3161 56.0588 33.8787 56.6214C34.4413 57.184 35.2044 57.5001 36 57.5001H60C60.7957 57.5001 61.5587 57.184 62.1213 56.6214C62.6839 56.0588 63 55.2958 63 54.5001C63 53.7045 62.6839 52.9414 62.1213 52.3788C61.5587 51.8162 60.7957 51.5001 60 51.5001ZM87 48.5001C87.0015 55.2334 85.2597 61.8523 81.9441 67.7127C78.6286 73.573 73.8523 78.4752 68.0801 81.942C62.3079 85.4088 55.7365 87.3221 49.0055 87.4957C42.2745 87.6693 35.6132 86.0972 29.67 82.9326L16.9012 87.1889C15.8441 87.5414 14.7096 87.5926 13.625 87.3366C12.5404 87.0807 11.5485 86.5277 10.7604 85.7397C9.97243 84.9517 9.41945 83.9598 9.16349 82.8751C8.90753 81.7905 8.95869 80.656 9.31125 79.5989L13.5675 66.8301C10.7856 61.5997 9.23174 55.8043 9.02399 49.8838C8.81624 43.9632 9.96002 38.0731 12.3685 32.6606C14.777 27.2481 18.3869 22.4554 22.9242 18.6463C27.4615 14.8373 32.8069 12.1119 38.5548 10.6771C44.3026 9.24239 50.3017 9.13594 56.0969 10.3659C61.892 11.5958 67.3307 14.1298 72.0003 17.7755C76.6699 21.4212 80.4475 26.0828 83.0465 31.4065C85.6455 36.7301 86.9976 42.5759 87 48.5001ZM81 48.5001C80.9986 43.4381 79.8326 38.4442 77.5923 33.9049C75.3521 29.3656 72.0975 25.4025 68.0805 22.3222C64.0636 19.242 59.3918 17.1271 54.4267 16.1413C49.4615 15.1555 44.3362 15.3251 39.4471 16.6371C34.5581 17.9491 30.0364 20.3682 26.2318 23.7073C22.4273 27.0465 19.4419 31.2161 17.5067 35.8936C15.5715 40.5711 14.7383 45.6311 15.0716 50.6822C15.4049 55.7332 16.8957 60.6399 19.4287 65.0226C19.6413 65.3906 19.7734 65.7995 19.816 66.2223C19.8587 66.6451 19.811 67.0721 19.6762 67.4751L15 81.5001L29.025 76.8239C29.3305 76.7197 29.651 76.6665 29.9737 76.6664C30.5006 76.6673 31.018 76.807 31.4737 77.0714C36.4905 79.9739 42.1832 81.504 47.9792 81.5077C53.7751 81.5114 59.4697 79.9884 64.4902 77.0922C69.5106 74.196 73.6796 70.0286 76.5779 65.0093C79.4761 59.9901 81.0013 54.296 81 48.5001Z" fill="#0F172A"/>
</g>
</svg>
